<!-- Generator: Adobe Illustrator 19.2.1, SVG Export Plug-In . SVG Version: 6.00 Build 0)  --><svg version="1.1" id="layer" xmlns="http://www.w3.org/2000/svg" xmlns:xlink="http://www.w3.org/1999/xlink" x="0px" y="0px" viewBox="0 0 652 652" style="enable-background:new 0 0 652 652;" xml:space="preserve" height="40" width="40"><path d="M21.4,211.9v219h118v-37H63.4v-57.6h55.7v-37H63.4v-50.3h73v-37H21.4z M302.2,211.9v129.8h-0.6l-58.4-129.8h-45.9v219h38.3  V289.6h0.6l64.2,141.3h40.2v-219H302.2z M412.2,211.9h58.4c48.1,0,74.8,20.6,76.7,75.8v67.3c-1.8,55.2-28.6,75.8-76.7,75.8h-58.4  V211.9z M454.1,393.9h14.6c23.1,0,36.5-10.9,36.5-43.7v-57.6c0-30.9-10.3-43.7-36.5-43.7h-14.6V393.9L454.1,393.9z M578.2,430.8  h43.2v-43.1h-43.2V430.8z" /></svg>