<!DOCTYPE svg PUBLIC "-//W3C//DTD SVG 1.0//EN" "http://www.w3.org/TR/2001/REC-SVG-20010904/DTD/svg10.dtd"[]><svg xmlns="http://www.w3.org/2000/svg" xmlns:xlink="http://www.w3.org/1999/xlink" id="body_1" width="40" height="30" viewBox="0 0 1024 768"><g transform="matrix(1.1779141 0 0 1.1779141 127.99999 -0)"><path d="M129.5 378.8L29.2 378.8C 25 378.8 20.800001 382.3 20.800001 387.19998C 20.800001 391.4 24.300001 395.59998 29.2 395.59998L29.2 395.59998L128.8 395.59998C 143.5 395.59998 155.5 383.69998 155.5 368.89996C 155.5 354.19995 143.6 342.19995 129.5 342.19995L129.5 342.19995L105 342.19995C 67.8 342.19995 37.6 311.99994 37.6 274.79996C 37.6 237.59998 67.8 207.39996 105 207.39996L105 207.39996L209.6 207.39996C 229.90001 207.39996 249.6 215.79996 264.30002 230.59996C 279.00003 213.79996 299.40002 204.59996 321.80002 204.59996C 363.90002 204.59996 398.30002 238.99997 398.30002 281.09998L398.30002 281.09998L398.30002 360.39996C 398.30002 379.99997 414.40002 396.19995 434.1 396.19995L434.1 396.19995L538.7 396.19995C 553.4 396.19995 565.4 384.29996 565.4 369.49994C 565.4 354.69992 553.5 342.79993 538.7 342.79993L538.7 342.79993L514.8 342.79993C 477.59998 342.79993 447.4 312.5999 447.4 275.39993C 447.4 238.19995 477.6 207.99994 514.8 207.99994L514.8 207.99994L598.3 207.99994C 603.2 207.99994 606.7 204.49994 606.7 199.59995C 606.7 195.39995 603.2 191.19995 598.3 191.19995L598.3 191.19995L514.1 191.19995C 467.8 191.19995 430.59998 229.09995 430.59998 274.69995C 430.59998 320.29996 468.49997 358.19995 514.1 358.19995L514.1 358.19995L538 358.19995C 543.6 358.19995 548.5 362.39996 548.5 367.99994C 548.5 373.5999 544.3 377.79993 538 377.79993L538 377.79993L433.4 377.79993C 422.9 377.79993 414.5 369.39993 414.5 358.89993L414.5 358.89993L414.5 280.29993C 414.5 229.09993 372.4 187.69992 321.2 187.69992C 300.1 187.69992 279.80002 194.69992 263 207.99992C 247.6 196.79993 228.6 190.49992 209 190.49992L209 190.49992L105 190.49992C 58.7 190.49992 21.5 228.39993 21.5 274.69992C 21.5 320.9999 59.4 358.19992 105 358.19992L105 358.19992L129.6 358.19992C 135.20001 358.19992 139.40001 362.39993 139.40001 367.9999C 139.3 373.9 134.4 378.8 129.5 378.8zM209.5 248.3L105 248.3C 90.3 248.3 78.3 260.2 78.3 275C 78.3 289.8 90.200005 301.7 105 301.7L105 301.7L129.6 301.7C 166.8 301.7 197 331.90002 197 369.1C 197 406.3 166.8 436.5 129.6 436.5L129.6 436.5L29.2 436.5C 25 436.5 20.800001 440 20.800001 444.9C 20.800001 449.1 24.300001 453.3 29.2 453.3L29.2 453.3L128.8 453.3C 175.1 453.3 212.3 415.4 212.3 369.8C 212.3 323.5 174.4 286.3 128.8 286.3L128.8 286.3L105 286.3C 99.4 286.3 94.5 281.4 94.5 276.5C 94.5 270.9 99.4 266 105 266L105 266L209.6 266C 220.1 266 228.5 274.4 228.5 284.9L228.5 284.9L228.5 445.59998C 228.5 449.8 232 453.99997 236.9 453.99997C 241.79999 453.99997 245.29999 450.49997 245.29999 445.59998L245.29999 445.59998L245.29999 283.4C 245.3 263.8 229.2 248.3 209.5 248.3zM597.6 309.4C 581.5 293.3 560.39996 284.8 538.69995 284.8L538.69995 284.8L514.7999 284.8C 509.19992 284.8 504.99994 279.9 504.99994 275C 504.99994 269.4 509.19995 264.5 514.7999 264.5L514.7999 264.5L598.2999 264.5C 603.19995 264.5 606.69995 261 606.69995 256.1C 606.69995 251.90001 603.19995 247.70001 598.2999 247.70001L598.2999 247.70001L514.0999 247.70001C 499.3999 247.70001 487.3999 259.6 487.3999 274.40002C 487.3999 289.20004 499.2999 301.10004 514.0999 301.10004L514.0999 301.10004L537.99994 301.10004C 556.19995 301.10004 573.0999 308.10004 585.69995 320.70004C 598.2999 333.30005 605.2999 350.20004 605.2999 368.40005C 605.2999 405.60007 575.0999 435.80005 537.8999 435.80005L537.8999 435.80005L433.4 435.80005C 391.3 435.80005 356.9 401.40005 356.9 359.30005L356.9 359.30005L356.9 280.70004C 356.9 261.10004 340.8 244.90004 321.1 244.90004C 301.5 244.90004 285.30002 261.00003 285.30002 280.70004L285.30002 280.70004L285.30002 444.20004C 285.30002 448.40005 288.80002 452.60004 293.7 452.60004C 297.90002 452.60004 302.1 449.10004 302.1 444.20004L302.1 444.20004L302.1 280.6C 302.1 270.1 310.5 261.7 321 261.7C 331.5 261.7 339.9 270.1 339.9 280.6L339.9 280.6L339.9 359.90002C 339.9 411.10004 381.3 452.50003 432.5 452.50003L432.5 452.50003L537.1 452.50003C 583.39996 452.50003 620.6 414.60004 620.6 369.00003C 621.4 345.9 613 324.8 597.6 309.4zM321.8 232.9C 347.8 232.9 369.5 254.7 369.5 280.6L369.5 280.6L369.5 359.90002C 369.5 395.00003 398.3 423.80002 433.4 423.80002L433.4 423.80002L538 423.80002C 568.2 423.80002 593.4 399.2 593.4 368.40002C 593.4 338.2 568.80005 313.00003 538 313.00003L538 313.00003L514.1 313.00003C 492.3 313.00003 475.49997 295.50003 475.49997 274.40002C 475.49997 252.60002 492.99997 235.80002 514.1 235.80002L514.1 235.80002L597.6 235.80002C 602.5 235.80002 606 232.30002 606 227.40002C 606 223.20003 602.5 219.00003 597.6 219.00003L597.6 219.00003L514.1 219.00003C 483.89996 219.00003 458.69998 243.60004 458.69998 274.40002C 458.69998 305.2 483.3 329.80002 514.1 329.80002L514.1 329.80002L538 329.80002C 559.8 329.80002 576.6 347.30002 576.6 368.40002C 576.6 389.50003 559.1 407.00003 538 407.00003L538 407.00003L433.4 407.00003C 407.4 407.00003 385.69998 385.20004 385.69998 359.30002L385.69998 359.30002L385.69998 280.7C 385.69998 245.6 356.9 216.80002 321.8 216.80002C 297.19998 216.80002 275.5 230.80002 265 251.20001C 253.8 232.30002 233.4 219.6 209.6 219.6L209.6 219.6L105 219.6C 74.8 219.6 49.6 244.20001 49.6 275C 49.6 305.8 74.2 330.4 105 330.4L105 330.4L129.6 330.4C 150.70001 330.4 168.20001 347.9 168.20001 369C 168.20001 390.1 150.70001 407.6 129.6 407.6L129.6 407.6L29.9 407.6C 25.7 407.6 21.5 411.1 21.5 416C 21.5 420.2 25 424.4 29.9 424.4L29.9 424.4L129.5 424.4C 159.7 424.4 184.9 399.8 184.9 369C 184.9 338.8 160.29999 313.6 129.5 313.6L129.5 313.6L105 313.6C 83.2 313.6 66.4 296.1 66.4 275C 66.4 253.2 83.9 236.4 105 236.4L105 236.4L209.6 236.4C 235.6 236.4 257.30002 258.19998 257.30002 284.1L257.30002 284.1L257.30002 444.8C 257.30002 449 260.80002 453.19998 265.7 453.19998C 269.90002 453.19998 274.1 449.69998 274.1 444.8L274.1 444.8L274.1 280.6C 274.1 253.9 295.1 232.9 321.8 232.9z" stroke="none" fill="#000000" fill-rule="nonzero" /></g></svg>